<svg width="21" height="19" viewBox="0 0 21 19" fill="none" xmlns="http://www.w3.org/2000/svg">
<path d="M12.3229 4.55714L9.21194 7.9711L7.80637 6.43058C6.64131 5.14682 4.74691 5.08092 3.55765 6.32446C3.26734 6.62826 3.03532 6.99256 2.8752 7.39597C2.71508 7.79938 2.6301 8.23378 2.62522 8.67367C2.62035 9.11357 2.69569 9.5501 2.84682 9.95765C2.99795 10.3652 3.22184 10.7356 3.50533 11.047L7.07938 14.9676C7.35892 15.2742 7.69083 15.5173 8.05614 15.6832C8.42145 15.8491 8.813 15.9345 9.20842 15.9345C9.60385 15.9345 9.9954 15.8491 10.3607 15.6832C10.726 15.5173 11.0579 15.2742 11.3375 14.9676L12.1043 14.1272L16.6177 9.18041C16.901 8.86939 17.1247 8.49954 17.2759 8.09253C17.4271 7.68552 17.5026 7.24954 17.4981 6.81013C17.4936 6.37071 17.4091 5.9367 17.2496 5.53353C17.0902 5.13035 16.8589 4.76611 16.5693 4.46214C15.3793 3.21346 13.4825 3.28279 12.3229 4.55714Z" fill="#032C13"/>
<path d="M8.01681 12.0698L8.02462 12.0775C8.24968 12.324 8.55485 12.4625 8.87304 12.4625C9.19122 12.4625 9.49639 12.324 9.72145 12.0775L9.97992 11.7942C10.2047 11.5472 10.5097 11.4081 10.8279 11.4073C11.0344 11.4074 11.2374 11.4664 11.4167 11.5785C11.5135 11.6368 11.6021 11.71 11.6799 11.7959C11.9054 12.0436 12.032 12.3793 12.032 12.7292C12.032 13.0791 11.9054 13.4148 11.6799 13.6625L10.9131 14.5029C10.4611 14.9977 9.8484 15.2756 9.20959 15.2756C8.57079 15.2756 7.9581 14.9977 7.50612 14.5029L3.92973 10.5823C3.48733 10.0851 3.24147 9.41694 3.24541 8.72249C3.24934 8.02804 3.50275 7.36325 3.95074 6.87214C4.39873 6.38102 5.00523 6.10313 5.63884 6.09866C6.27246 6.09419 6.88217 6.3635 7.33589 6.84825L9.20998 8.90228L8.01681 10.2109C7.79193 10.4574 7.6656 10.7917 7.6656 11.1403C7.6656 11.4889 7.79193 11.8232 8.01681 12.0698V12.0698Z" fill="white"/>
<path d="M16.1957 4.97993C16.6473 5.47519 16.901 6.14674 16.901 6.84695C16.901 7.54716 16.6473 8.21871 16.1957 8.71398L11.6822 13.6608C11.7942 13.5383 11.883 13.3928 11.9436 13.2326C12.0042 13.0725 12.0354 12.9008 12.0354 12.7275C12.0354 12.5541 12.0042 12.3824 11.9436 12.2223C11.883 12.0621 11.7942 11.9167 11.6822 11.7942C11.6045 11.7083 11.5159 11.6351 11.4191 11.5768C11.2397 11.4647 11.0368 11.4057 10.8303 11.4056C10.6721 11.4054 10.5153 11.4395 10.3691 11.5059C10.223 11.5723 10.0902 11.6697 9.97838 11.7925L9.71992 12.0792C9.49486 12.3257 9.18969 12.4642 8.8715 12.4642C8.55331 12.4642 8.24814 12.3257 8.02308 12.0792L8.01527 12.0715C7.79039 11.8249 7.66406 11.4906 7.66406 11.142C7.66406 10.7934 7.79039 10.4591 8.01527 10.2126L12.788 4.98164C13.0116 4.73621 13.2771 4.54147 13.5694 4.40855C13.8617 4.27563 14.175 4.20713 14.4915 4.20697C14.808 4.20681 15.1213 4.27499 15.4138 4.40762C15.7062 4.54025 15.9719 4.73472 16.1957 4.97993Z" fill="#00D971"/>
</svg>
